# xmcd
#
# Track frame offsets:
#	150
#	9242
#	21912
#	31090
#	39515
#	47982
#	60507
#	73595
#	87632
#	97307
#	106890
#	115157
#	122160
#	131970
#	141212
#	154355
#	159875
#	170787
#	183107
#	190772
#	204052
#	214925
#
# Disc length: 2959 seconds
#
# Revision: 1
# Processed by: cddbd v1.5.1PL0 Copyright (c) Steve Scherf et al.
# Submitted via: CDex 1.50Beta5
#
DISCID=360b8d16
DTITLE=羽田健太郎 - Wizardry LLYLGAMYN SAGA
DYEAR=1900
DGENRE=
TTITLE0=リルガミンサーガ・メインテーマ
TTITLE1=サーガ
TTITLE2=城塞都市リルガミン
TTITLE3=繁栄と緊張の街
TTITLE4=衰退の街
TTITLE5=賑わう酒場
TTITLE6=安らぎの宿屋
TTITLE7=頑固親父
TTITLE8=治癒と復活の寺院
TTITLE9=訓練
TTITLE10=寂寥
TTITLE11=束の間の休息
TTITLE12=闘い
TTITLE13=宝箱調査
TTITLE14=妖気満ちる迷宮
TTITLE15=呪いの迷宮
TTITLE16=神秘の迷宮
TTITLE17=リルガミンサーガ・レクイエム
TTITLE18=ワードナのテーマ
TTITLE19=KOS’Sのテーマ
TTITLE20=ル’ケブレスのテーマ
TTITLE21=リルガミンサーガ・ファンファーレ
EXTD=
EXTT0=
EXTT1=
EXTT2=
EXTT3=
EXTT4=
EXTT5=
EXTT6=
EXTT7=
EXTT8=
EXTT9=
EXTT10=
EXTT11=
EXTT12=
EXTT13=
EXTT14=
EXTT15=
EXTT16=
EXTT17=
EXTT18=
EXTT19=
EXTT20=
EXTT21=
PLAYORDER=
